<svg width="641" height="357" viewBox="0 0 641 357" fill="none" xmlns="http://www.w3.org/2000/svg">
<path d="M6.80646 13.1193C6.30646 13.1193 5.85618 13.0199 5.45561 12.821C5.05504 12.6222 4.73402 12.3494 4.49254 12.0028C4.25107 11.6562 4.11896 11.2614 4.09624 10.8182H5.11896C5.15874 11.2131 5.33771 11.5398 5.65589 11.7983C5.97692 12.054 6.36044 12.1818 6.80646 12.1818C7.16442 12.1818 7.4826 12.098 7.76101 11.9304C8.04226 11.7628 8.26243 11.5327 8.42152 11.2401C8.58345 10.9446 8.66442 10.6108 8.66442 10.2386C8.66442 9.85795 8.58061 9.51847 8.413 9.22017C8.24822 8.91903 8.02095 8.68182 7.73118 8.50852C7.44141 8.33523 7.11044 8.24716 6.73828 8.24432C6.47124 8.24148 6.19709 8.28267 5.91584 8.3679C5.63459 8.45028 5.40305 8.55682 5.22124 8.6875L4.2326 8.56818L4.76101 4.27273H9.2951V5.21023H5.64737L5.34055 7.78409H5.39169C5.57067 7.64205 5.7951 7.52415 6.06499 7.4304C6.33487 7.33665 6.61612 7.28977 6.90874 7.28977C7.44283 7.28977 7.91868 7.41761 8.33629 7.6733C8.75675 7.92614 9.08629 8.27273 9.32493 8.71307C9.56641 9.15341 9.68714 9.65625 9.68714 10.2216C9.68714 10.7784 9.56214 11.2756 9.31214 11.7131C9.06499 12.1477 8.72408 12.4915 8.28942 12.7443C7.85476 12.9943 7.36044 13.1193 6.80646 13.1193ZM12.5689 11.8068L12.5007 12.267C12.4524 12.5909 12.3786 12.9375 12.2791 13.3068C12.1825 13.6761 12.0817 14.0241 11.9766 14.3509C11.8714 14.6776 11.7848 14.9375 11.7166 15.1307H10.9496C10.9865 14.9489 11.0348 14.7088 11.0945 14.4105C11.1541 14.1122 11.2138 13.7784 11.2734 13.4091C11.3359 13.0426 11.3871 12.6676 11.4268 12.2841L11.478 11.8068H12.5689ZM17.0359 13.1193C16.4734 13.1193 15.9719 13.0227 15.5316 12.8295C15.0941 12.6364 14.7461 12.3679 14.4876 12.0241C14.2319 11.6776 14.0927 11.2756 14.07 10.8182H15.1438C15.1665 11.0994 15.2631 11.3423 15.4336 11.5469C15.604 11.7486 15.8271 11.9048 16.1026 12.0156C16.3782 12.1264 16.6836 12.1818 17.0188 12.1818C17.3938 12.1818 17.7262 12.1165 18.016 11.9858C18.3058 11.8551 18.533 11.6733 18.6978 11.4403C18.8626 11.2074 18.945 10.9375 18.945 10.6307C18.945 10.3097 18.8654 10.027 18.7063 9.78267C18.5472 9.53551 18.3143 9.34233 18.0075 9.20312C17.7006 9.06392 17.3256 8.99432 16.8825 8.99432H16.1836V8.05682H16.8825C17.229 8.05682 17.533 7.99432 17.7944 7.86932C18.0586 7.74432 18.2646 7.56818 18.4123 7.34091C18.5629 7.11364 18.6381 6.84659 18.6381 6.53977C18.6381 6.24432 18.5728 5.98722 18.4421 5.76847C18.3114 5.54972 18.1268 5.37926 17.8881 5.2571C17.6523 5.13494 17.3739 5.07386 17.0529 5.07386C16.7518 5.07386 16.4677 5.12926 16.2006 5.24006C15.9364 5.34801 15.7205 5.50568 15.5529 5.71307C15.3853 5.91761 15.2944 6.16477 15.2802 6.45455H14.2575C14.2745 5.99716 14.4123 5.59659 14.6708 5.25284C14.9293 4.90625 15.2674 4.63636 15.685 4.44318C16.1055 4.25 16.5671 4.15341 17.07 4.15341C17.6097 4.15341 18.0728 4.26278 18.4592 4.48153C18.8455 4.69744 19.1424 4.98295 19.3498 5.33807C19.5572 5.69318 19.6609 6.0767 19.6609 6.48864C19.6609 6.98011 19.5316 7.39915 19.2731 7.74574C19.0174 8.09233 18.6694 8.33239 18.229 8.46591V8.53409C18.7802 8.625 19.2106 8.85937 19.5202 9.23722C19.8299 9.61222 19.9847 10.0767 19.9847 10.6307C19.9847 11.1051 19.8555 11.5312 19.5969 11.9091C19.3413 12.2841 18.9918 12.5795 18.5487 12.7955C18.1055 13.0114 17.6012 13.1193 17.0359 13.1193Z" fill="#334155"/>
<path d="M6.8299 107.786C6.3299 107.786 5.87962 107.687 5.47905 107.488C5.07848 107.289 4.75746 107.016 4.51598 106.67C4.2745 106.323 4.1424 105.928 4.11967 105.485H5.1424C5.18217 105.88 5.36115 106.206 5.67933 106.465C6.00036 106.721 6.38388 106.849 6.8299 106.849C7.18786 106.849 7.50604 106.765 7.78445 106.597C8.0657 106.429 8.28587 106.199 8.44496 105.907C8.60689 105.611 8.68786 105.277 8.68786 104.905C8.68786 104.525 8.60405 104.185 8.43643 103.887C8.27166 103.586 8.04439 103.349 7.75462 103.175C7.46484 103.002 7.13388 102.914 6.76172 102.911C6.49467 102.908 6.22053 102.949 5.93928 103.035C5.65803 103.117 5.42649 103.224 5.24467 103.354L4.25604 103.235L4.78445 98.9394H9.31854V99.8769H5.67081L5.36399 102.451H5.41513C5.59411 102.309 5.81854 102.191 6.08842 102.097C6.35831 102.003 6.63956 101.956 6.93217 101.956C7.46626 101.956 7.94212 102.084 8.35973 102.34C8.78018 102.593 9.10973 102.939 9.34837 103.38C9.58984 103.82 9.71058 104.323 9.71058 104.888C9.71058 105.445 9.58558 105.942 9.33558 106.38C9.08842 106.814 8.74751 107.158 8.31286 107.411C7.8782 107.661 7.38388 107.786 6.8299 107.786ZM12.5923 106.474L12.5241 106.934C12.4759 107.258 12.402 107.604 12.3026 107.974C12.206 108.343 12.1051 108.691 12 109.018C11.8949 109.344 11.8082 109.604 11.7401 109.797H10.973C11.0099 109.616 11.0582 109.375 11.1179 109.077C11.1776 108.779 11.2372 108.445 11.2969 108.076C11.3594 107.709 11.4105 107.334 11.4503 106.951L11.5014 106.474H12.5923ZM14.4386 107.667V106.9L17.3192 103.746C17.6573 103.377 17.9357 103.056 18.1545 102.783C18.3732 102.508 18.5352 102.249 18.6403 102.008C18.7482 101.763 18.8022 101.508 18.8022 101.241C18.8022 100.934 18.7283 100.668 18.5806 100.444C18.4357 100.219 18.2369 100.046 17.984 99.9238C17.7312 99.8016 17.4471 99.7406 17.1317 99.7406C16.7965 99.7406 16.5039 99.8102 16.2539 99.9494C16.0067 100.086 15.815 100.277 15.6786 100.525C15.5451 100.772 15.4783 101.062 15.4783 101.394H14.4727C14.4727 100.883 14.5906 100.434 14.8263 100.047C15.0621 99.661 15.3832 99.3599 15.7894 99.144C16.1985 98.9281 16.6573 98.8201 17.1658 98.8201C17.6772 98.8201 18.1303 98.9281 18.5252 99.144C18.9201 99.3599 19.2298 99.6511 19.4542 100.018C19.6786 100.384 19.7908 100.792 19.7908 101.241C19.7908 101.562 19.7326 101.875 19.6161 102.182C19.5025 102.486 19.3036 102.826 19.0195 103.201C18.7383 103.573 18.3477 104.027 17.8477 104.564L15.8874 106.661V106.729H19.9442V107.667H14.4386Z" fill="#334155"/>
<path d="M8.19513 202.453C7.69513 202.453 7.24485 202.353 6.84428 202.154C6.44371 201.955 6.12269 201.683 5.88121 201.336C5.63974 200.99 5.50763 200.595 5.48491 200.151H6.50764C6.54741 200.546 6.72639 200.873 7.04457 201.132C7.36559 201.387 7.74911 201.515 8.19513 201.515C8.55309 201.515 8.87127 201.431 9.14968 201.264C9.43093 201.096 9.6511 200.866 9.81019 200.573C9.97212 200.278 10.0531 199.944 10.0531 199.572C10.0531 199.191 9.96928 198.852 9.80167 198.553C9.6369 198.252 9.40962 198.015 9.11985 197.842C8.83008 197.669 8.49911 197.58 8.12695 197.578C7.85991 197.575 7.58576 197.616 7.30451 197.701C7.02326 197.784 6.79173 197.89 6.60991 198.021L5.62127 197.901L6.14968 193.606H10.6838V194.544H7.03604L6.72923 197.117H6.78036C6.95934 196.975 7.18377 196.857 7.45366 196.764C7.72354 196.67 8.00479 196.623 8.29741 196.623C8.8315 196.623 9.30735 196.751 9.72496 197.007C10.1454 197.259 10.475 197.606 10.7136 198.046C10.9551 198.487 11.0758 198.99 11.0758 199.555C11.0758 200.112 10.9508 200.609 10.7008 201.046C10.4537 201.481 10.1127 201.825 9.67809 202.078C9.24343 202.328 8.74911 202.453 8.19513 202.453ZM13.9576 201.14L13.8894 201.6C13.8411 201.924 13.7672 202.271 13.6678 202.64C13.5712 203.009 13.4703 203.357 13.3652 203.684C13.2601 204.011 13.1735 204.271 13.1053 204.464H12.3382C12.3752 204.282 12.4235 204.042 12.4831 203.744C12.5428 203.446 12.6025 203.112 12.6621 202.742C12.7246 202.376 12.7757 202.001 12.8155 201.617L12.8667 201.14H13.9576ZM17.829 193.606V202.333H16.7722V194.714H16.7211L14.5904 196.129V195.055L16.7722 193.606H17.829Z" fill="#334155"/>
<path d="M6.86506 297.119C6.36506 297.119 5.91477 297.02 5.5142 296.821C5.11364 296.622 4.79261 296.349 4.55114 296.003C4.30966 295.656 4.17756 295.261 4.15483 294.818H5.17756C5.21733 295.213 5.39631 295.54 5.71449 295.798C6.03551 296.054 6.41903 296.182 6.86506 296.182C7.22301 296.182 7.54119 296.098 7.8196 295.93C8.10085 295.763 8.32102 295.533 8.48011 295.24C8.64205 294.945 8.72301 294.611 8.72301 294.239C8.72301 293.858 8.6392 293.518 8.47159 293.22C8.30682 292.919 8.07955 292.682 7.78977 292.509C7.5 292.335 7.16903 292.247 6.79688 292.244C6.52983 292.241 6.25568 292.283 5.97443 292.368C5.69318 292.45 5.46165 292.557 5.27983 292.688L4.29119 292.568L4.8196 288.273H9.35369V289.21H5.70597L5.39915 291.784H5.45028C5.62926 291.642 5.85369 291.524 6.12358 291.43C6.39347 291.337 6.67472 291.29 6.96733 291.29C7.50142 291.29 7.97727 291.418 8.39489 291.673C8.81534 291.926 9.14489 292.273 9.38352 292.713C9.625 293.153 9.74574 293.656 9.74574 294.222C9.74574 294.778 9.62074 295.276 9.37074 295.713C9.12358 296.148 8.78267 296.491 8.34801 296.744C7.91335 296.994 7.41903 297.119 6.86506 297.119ZM12.6275 295.807L12.5593 296.267C12.511 296.591 12.4371 296.938 12.3377 297.307C12.2411 297.676 12.1403 298.024 12.0352 298.351C11.93 298.678 11.8434 298.938 11.7752 299.131H11.0082C11.0451 298.949 11.0934 298.709 11.1531 298.411C11.2127 298.112 11.2724 297.778 11.332 297.409C11.3945 297.043 11.4457 296.668 11.4854 296.284L11.5366 295.807H12.6275ZM17.0156 297.119C16.3736 297.119 15.8267 296.945 15.375 296.595C14.9233 296.243 14.5781 295.733 14.3395 295.065C14.1009 294.395 13.9815 293.585 13.9815 292.636C13.9815 291.693 14.1009 290.888 14.3395 290.22C14.581 289.55 14.9276 289.038 15.3793 288.686C15.8338 288.331 16.3793 288.153 17.0156 288.153C17.652 288.153 18.196 288.331 18.6477 288.686C19.1023 289.038 19.4489 289.55 19.6875 290.22C19.929 290.888 20.0497 291.693 20.0497 292.636C20.0497 293.585 19.9304 294.395 19.6918 295.065C19.4531 295.733 19.108 296.243 18.6562 296.595C18.2045 296.945 17.6577 297.119 17.0156 297.119ZM17.0156 296.182C17.652 296.182 18.1463 295.875 18.4986 295.261C18.8509 294.648 19.027 293.773 19.027 292.636C19.027 291.881 18.946 291.237 18.7841 290.706C18.625 290.175 18.3949 289.77 18.0938 289.491C17.7955 289.213 17.4361 289.074 17.0156 289.074C16.3849 289.074 15.892 289.385 15.5369 290.007C15.1818 290.626 15.0043 291.503 15.0043 292.636C15.0043 293.392 15.0838 294.034 15.2429 294.562C15.402 295.091 15.6307 295.493 15.929 295.768C16.2301 296.044 16.5923 296.182 17.0156 296.182Z" fill="#334155"/>
<g opacity="0.3">
<line x1="639.336" y1="202.317" x2="48" y2="202.317" stroke="#94A3B8"/>
<line x1="639.336" y1="301.5" x2="48" y2="301.5" stroke="#94A3B8"/>
<line x1="639.336" y1="105.722" x2="48" y2="105.722" stroke="#94A3B8"/>
<line x1="639.336" y1="1.5" x2="48" y2="1.5" stroke="#94A3B8"/>
</g>
<path d="M77.5668 114.978L48 136.708V301H639.336L609.769 121.598L580.202 1L550.636 174.81L521.069 182.757L491.502 43.8227L461.935 21.0333L432.368 226.835L402.802 104.353L373.235 88.183L343.668 60.7983L314.101 189.639L284.534 257.959L254.968 214.522L225.401 217.556L195.834 126.057L166.267 171.791L136.7 146.844L107.134 61.7134L77.5668 114.978Z" fill="url(#paint0_linear_6_28)"/>
<path d="M48 136.708L77.5668 114.978L107.134 61.7134L136.7 146.844L166.267 171.791L195.834 126.057L225.401 217.556L254.968 214.522L284.534 257.959L314.101 189.639L343.668 60.7983L373.235 88.183L402.802 104.353L432.368 226.835L461.935 21.0333L491.502 43.8227L521.069 182.757L550.636 174.809L580.202 1L609.769 121.598L639.336 301" stroke="#7C3AED" stroke-width="2"/>
<line x1="550.947" y1="1" x2="550.947" y2="301" stroke="#94A3B8" stroke-dasharray="4 4"/>
<circle cx="551" cy="174.315" r="4" fill="#7C3AED"/>
<g filter="url(#filter0_d_6_28)">
<rect x="477.447" y="49" width="146" height="40" rx="4" fill="white" shape-rendering="crispEdges"/>
<path d="M489.683 74.1392C489.1 74.1392 488.575 74.0232 488.107 73.7912C487.64 73.5592 487.265 73.241 486.984 72.8366C486.702 72.4323 486.548 71.9716 486.521 71.4545H487.714C487.761 71.9152 487.97 72.2964 488.341 72.598C488.715 72.8963 489.163 73.0455 489.683 73.0455C490.101 73.0455 490.472 72.9477 490.797 72.7521C491.125 72.5566 491.382 72.2881 491.567 71.9467C491.756 71.602 491.851 71.2126 491.851 70.7784C491.851 70.3343 491.753 69.9382 491.557 69.5902C491.365 69.2389 491.1 68.9621 490.762 68.7599C490.424 68.5578 490.038 68.455 489.604 68.4517C489.292 68.4484 488.972 68.4964 488.644 68.5959C488.316 68.692 488.046 68.8163 487.834 68.9688L486.68 68.8295L487.297 63.8182H492.587V64.9119H488.331L487.973 67.9148H488.033C488.241 67.7491 488.503 67.6115 488.818 67.5021C489.133 67.3928 489.461 67.3381 489.803 67.3381C490.426 67.3381 490.981 67.4872 491.468 67.7855C491.959 68.0805 492.343 68.4848 492.621 68.9986C492.903 69.5123 493.044 70.099 493.044 70.7585C493.044 71.4081 492.898 71.9882 492.606 72.4986C492.318 73.0057 491.92 73.4067 491.413 73.7017C490.906 73.9934 490.329 74.1392 489.683 74.1392ZM496.406 72.608L496.326 73.1449C496.27 73.5227 496.184 73.9271 496.068 74.358C495.955 74.7888 495.838 75.1948 495.715 75.576C495.592 75.9571 495.491 76.2604 495.412 76.4858H494.517C494.56 76.2737 494.616 75.9936 494.686 75.6456C494.755 75.2976 494.825 74.9081 494.895 74.4773C494.968 74.0497 495.027 73.6122 495.074 73.1648L495.133 72.608H496.406ZM500.923 63.8182V74H499.69V65.1108H499.63L497.144 66.7614V65.5085L499.69 63.8182H500.923ZM507.232 74.1392C506.814 74.1326 506.396 74.053 505.979 73.9006C505.561 73.7481 505.18 73.4912 504.835 73.13C504.491 72.7654 504.214 72.2732 504.005 71.6534C503.796 71.0303 503.692 70.2481 503.692 69.3068C503.692 68.4053 503.776 67.6065 503.945 66.9105C504.114 66.2112 504.36 65.6229 504.681 65.1456C505.003 64.665 505.391 64.3004 505.845 64.0518C506.302 63.8033 506.817 63.679 507.391 63.679C507.961 63.679 508.468 63.7933 508.912 64.022C509.359 64.2474 509.724 64.5623 510.006 64.9666C510.288 65.371 510.47 65.8366 510.553 66.3636H509.34C509.227 65.9062 509.008 65.5268 508.683 65.2251C508.359 64.9235 507.928 64.7727 507.391 64.7727C506.602 64.7727 505.98 65.1158 505.526 65.8018C505.076 66.4879 504.849 67.4508 504.845 68.6903H504.925C505.11 68.4086 505.331 68.1683 505.586 67.9695C505.845 67.7673 506.13 67.6115 506.441 67.5021C506.753 67.3928 507.083 67.3381 507.431 67.3381C508.014 67.3381 508.547 67.4839 509.031 67.7756C509.515 68.0639 509.903 68.4633 510.195 68.9737C510.486 69.4808 510.632 70.0625 510.632 70.7188C510.632 71.3485 510.491 71.9252 510.21 72.4489C509.928 72.9692 509.532 73.3835 509.021 73.6918C508.514 73.9967 507.918 74.1458 507.232 74.1392ZM507.232 73.0455C507.649 73.0455 508.024 72.9411 508.355 72.7322C508.69 72.5234 508.953 72.2434 509.146 71.892C509.341 71.5407 509.439 71.1496 509.439 70.7188C509.439 70.2978 509.345 69.915 509.156 69.5703C508.97 69.2223 508.713 68.9455 508.385 68.7401C508.06 68.5346 507.689 68.4318 507.271 68.4318C506.957 68.4318 506.663 68.4948 506.391 68.6207C506.12 68.7434 505.881 68.9124 505.676 69.1278C505.473 69.3433 505.314 69.5902 505.198 69.8686C505.082 70.1437 505.024 70.4337 505.024 70.7386C505.024 71.143 505.119 71.5208 505.308 71.8722C505.5 72.2235 505.762 72.5069 506.093 72.7223C506.428 72.9377 506.807 73.0455 507.232 73.0455ZM521.954 68.0739L520.9 68.3722C520.834 68.1965 520.736 68.0258 520.606 67.8601C520.481 67.6911 520.308 67.5518 520.089 67.4425C519.871 67.3331 519.591 67.2784 519.249 67.2784C518.782 67.2784 518.392 67.3861 518.081 67.6016C517.773 67.8137 517.619 68.0838 517.619 68.4119C517.619 68.7036 517.725 68.9339 517.937 69.103C518.149 69.272 518.48 69.4129 518.931 69.5256L520.065 69.804C520.747 69.9697 521.256 70.2232 521.591 70.5646C521.926 70.9027 522.093 71.3385 522.093 71.8722C522.093 72.3097 521.967 72.7008 521.715 73.0455C521.467 73.3902 521.119 73.6619 520.671 73.8608C520.224 74.0597 519.703 74.1591 519.11 74.1591C518.331 74.1591 517.686 73.9901 517.176 73.652C516.666 73.3139 516.343 72.8201 516.207 72.1705L517.32 71.892C517.426 72.303 517.627 72.6113 517.922 72.8168C518.22 73.0223 518.61 73.125 519.09 73.125C519.637 73.125 520.071 73.009 520.393 72.777C520.718 72.5417 520.88 72.2599 520.88 71.9318C520.88 71.6667 520.787 71.4446 520.602 71.2656C520.416 71.0833 520.131 70.9474 519.746 70.858L518.474 70.5597C517.774 70.3939 517.261 70.1371 516.932 69.7891C516.608 69.4377 516.445 68.9986 516.445 68.4716C516.445 68.0407 516.566 67.6596 516.808 67.3281C517.053 66.9967 517.387 66.7365 517.807 66.5476C518.232 66.3587 518.712 66.2642 519.249 66.2642C520.005 66.2642 520.598 66.4299 521.029 66.7614C521.463 67.0928 521.771 67.5303 521.954 68.0739ZM527.061 74.1591C526.325 74.1591 525.69 73.9967 525.157 73.6719C524.626 73.3438 524.217 72.8864 523.929 72.2997C523.644 71.7098 523.501 71.0237 523.501 70.2415C523.501 69.4593 523.644 68.7699 523.929 68.1733C524.217 67.5734 524.618 67.1061 525.132 66.7713C525.649 66.4332 526.252 66.2642 526.942 66.2642C527.339 66.2642 527.732 66.3305 528.12 66.4631C528.508 66.5956 528.861 66.8111 529.179 67.1094C529.497 67.4044 529.75 67.7955 529.939 68.2827C530.128 68.7699 530.223 69.3698 530.223 70.0824V70.5795H524.336V69.5653H529.03C529.03 69.1345 528.943 68.75 528.771 68.4119C528.602 68.0739 528.36 67.8071 528.045 67.6115C527.734 67.416 527.366 67.3182 526.942 67.3182C526.474 67.3182 526.07 67.4342 525.728 67.6662C525.39 67.8949 525.13 68.1932 524.948 68.5611C524.766 68.929 524.674 69.3234 524.674 69.7443V70.4205C524.674 70.9972 524.774 71.486 524.973 71.8871C525.175 72.2848 525.455 72.5881 525.813 72.7969C526.171 73.0024 526.587 73.1051 527.061 73.1051C527.369 73.1051 527.647 73.062 527.896 72.9759C528.148 72.8864 528.365 72.7538 528.547 72.5781C528.73 72.3991 528.871 72.1771 528.97 71.9119L530.103 72.2301C529.984 72.6146 529.784 72.9527 529.502 73.2443C529.22 73.5327 528.872 73.758 528.458 73.9205C528.044 74.0795 527.578 74.1591 527.061 74.1591ZM535.09 77.0227C534.523 77.0227 534.036 76.9498 533.628 76.804C533.221 76.6615 532.881 76.4725 532.609 76.2372C532.341 76.0052 532.127 75.7566 531.968 75.4915L532.902 74.8352C533.009 74.9744 533.143 75.1335 533.305 75.3125C533.468 75.4948 533.69 75.6522 533.971 75.7848C534.256 75.9207 534.629 75.9886 535.09 75.9886C535.706 75.9886 536.215 75.8395 536.616 75.5412C537.017 75.2429 537.218 74.7756 537.218 74.1392V72.5881H537.118C537.032 72.7273 536.91 72.8996 536.75 73.1051C536.595 73.3073 536.369 73.4879 536.074 73.647C535.783 73.8028 535.388 73.8807 534.891 73.8807C534.275 73.8807 533.721 73.7348 533.231 73.4432C532.743 73.1515 532.357 72.7273 532.072 72.1705C531.79 71.6136 531.65 70.9375 531.65 70.142C531.65 69.3598 531.787 68.6787 532.062 68.0987C532.337 67.5154 532.72 67.0646 533.211 66.7464C533.701 66.425 534.268 66.2642 534.911 66.2642C535.408 66.2642 535.803 66.3471 536.094 66.5128C536.389 66.6752 536.615 66.8608 536.77 67.0696C536.929 67.2751 537.052 67.4441 537.138 67.5767H537.258V66.3636H538.391V74.2188C538.391 74.875 538.242 75.4086 537.944 75.8196C537.649 76.2339 537.251 76.5372 536.75 76.7294C536.253 76.925 535.7 77.0227 535.09 77.0227ZM535.05 72.8267C535.521 72.8267 535.919 72.719 536.243 72.5036C536.568 72.2881 536.815 71.9782 536.984 71.5739C537.153 71.1695 537.238 70.6856 537.238 70.1222C537.238 69.572 537.155 69.0864 536.989 68.6655C536.823 68.2446 536.578 67.9148 536.253 67.6761C535.929 67.4375 535.527 67.3182 535.05 67.3182C534.553 67.3182 534.139 67.4441 533.807 67.696C533.479 67.9479 533.232 68.286 533.067 68.7102C532.904 69.1345 532.823 69.6051 532.823 70.1222C532.823 70.6525 532.906 71.1214 533.072 71.5291C533.241 71.9335 533.489 72.2517 533.817 72.4837C534.149 72.7124 534.56 72.8267 535.05 72.8267ZM541.394 74.0795C541.149 74.0795 540.938 73.9917 540.763 73.8161C540.587 73.6404 540.499 73.4299 540.499 73.1847C540.499 72.9394 540.587 72.7289 540.763 72.5533C540.938 72.3776 541.149 72.2898 541.394 72.2898C541.639 72.2898 541.85 72.3776 542.025 72.5533C542.201 72.7289 542.289 72.9394 542.289 73.1847C542.289 73.3471 542.247 73.4962 542.165 73.6321C542.085 73.768 541.977 73.8774 541.841 73.9602C541.709 74.0398 541.56 74.0795 541.394 74.0795ZM546.144 72.608L546.065 73.1449C546.008 73.5227 545.922 73.9271 545.806 74.358C545.694 74.7888 545.576 75.1948 545.453 75.576C545.331 75.9571 545.23 76.2604 545.15 76.4858H544.255C544.298 76.2737 544.355 75.9936 544.424 75.6456C544.494 75.2976 544.563 74.9081 544.633 74.4773C544.706 74.0497 544.766 73.6122 544.812 73.1648L544.872 72.608H546.144ZM555.815 63.8182V74H554.582V65.1108H554.523L552.037 66.7614V65.5085L554.582 63.8182H555.815ZM562.184 74.1392C561.528 74.1392 560.943 74.0265 560.429 73.8011C559.919 73.5758 559.512 73.2625 559.211 72.8615C558.913 72.4571 558.75 71.9882 558.724 71.4545H559.977C560.003 71.7827 560.116 72.0661 560.315 72.3047C560.513 72.54 560.774 72.7223 561.095 72.8516C561.417 72.9808 561.773 73.0455 562.164 73.0455C562.602 73.0455 562.989 72.9692 563.327 72.8168C563.665 72.6643 563.931 72.4522 564.123 72.1804C564.315 71.9086 564.411 71.5938 564.411 71.2358C564.411 70.8613 564.318 70.5315 564.133 70.2464C563.947 69.9581 563.675 69.7327 563.317 69.5703C562.959 69.4079 562.522 69.3267 562.005 69.3267H561.19V68.233H562.005C562.409 68.233 562.764 68.16 563.069 68.0142C563.377 67.8684 563.617 67.6629 563.79 67.3977C563.965 67.1326 564.053 66.821 564.053 66.4631C564.053 66.1184 563.977 65.8184 563.825 65.5632C563.672 65.308 563.457 65.1091 563.178 64.9666C562.903 64.8241 562.578 64.7528 562.204 64.7528C561.852 64.7528 561.521 64.8175 561.209 64.9467C560.901 65.0727 560.649 65.2566 560.454 65.4986C560.258 65.7372 560.152 66.0256 560.136 66.3636H558.942C558.962 65.83 559.123 65.3627 559.425 64.9616C559.726 64.5573 560.121 64.2424 560.608 64.017C561.098 63.7917 561.637 63.679 562.224 63.679C562.853 63.679 563.394 63.8066 563.844 64.0618C564.295 64.3137 564.642 64.6468 564.883 65.0611C565.125 65.4754 565.246 65.9228 565.246 66.4034C565.246 66.9768 565.096 67.4657 564.794 67.87C564.496 68.2744 564.09 68.5545 563.576 68.7102V68.7898C564.219 68.8958 564.721 69.1693 565.082 69.6101C565.444 70.0476 565.624 70.5895 565.624 71.2358C565.624 71.7893 565.473 72.2865 565.172 72.7273C564.874 73.1648 564.466 73.5095 563.949 73.7614C563.432 74.0133 562.843 74.1392 562.184 74.1392ZM574.499 74.1591C573.862 74.1591 573.3 73.9983 572.813 73.6768C572.326 73.352 571.945 72.8946 571.67 72.3047C571.395 71.7114 571.257 71.0104 571.257 70.2017C571.257 69.3996 571.395 68.7036 571.67 68.1136C571.945 67.5237 572.328 67.0679 572.818 66.7464C573.309 66.425 573.875 66.2642 574.518 66.2642C575.016 66.2642 575.408 66.3471 575.697 66.5128C575.988 66.6752 576.21 66.8608 576.363 67.0696C576.519 67.2751 576.64 67.4441 576.726 67.5767H576.825V63.8182H577.999V74H576.865V72.8267H576.726C576.64 72.9659 576.517 73.1416 576.358 73.3537C576.199 73.5625 575.972 73.7498 575.677 73.9155C575.382 74.0779 574.989 74.1591 574.499 74.1591ZM574.658 73.1051C575.128 73.1051 575.526 72.9825 575.851 72.7372C576.176 72.4886 576.423 72.1456 576.592 71.7081C576.761 71.2673 576.845 70.7585 576.845 70.1818C576.845 69.6117 576.762 69.1129 576.597 68.6854C576.431 68.2545 576.186 67.9197 575.861 67.6811C575.536 67.4392 575.135 67.3182 574.658 67.3182C574.16 67.3182 573.746 67.4458 573.415 67.701C573.087 67.9529 572.84 68.2959 572.674 68.7301C572.512 69.161 572.43 69.6449 572.43 70.1818C572.43 70.7254 572.513 71.2192 572.679 71.6634C572.848 72.1042 573.097 72.4555 573.425 72.7173C573.756 72.9759 574.167 73.1051 574.658 73.1051ZM583.512 74.1591C582.776 74.1591 582.142 73.9967 581.608 73.6719C581.078 73.3438 580.668 72.8864 580.38 72.2997C580.095 71.7098 579.952 71.0237 579.952 70.2415C579.952 69.4593 580.095 68.7699 580.38 68.1733C580.668 67.5734 581.069 67.1061 581.583 66.7713C582.1 66.4332 582.703 66.2642 583.393 66.2642C583.79 66.2642 584.183 66.3305 584.571 66.4631C584.959 66.5956 585.312 66.8111 585.63 67.1094C585.948 67.4044 586.202 67.7955 586.391 68.2827C586.579 68.7699 586.674 69.3698 586.674 70.0824V70.5795H580.788V69.5653H585.481C585.481 69.1345 585.395 68.75 585.222 68.4119C585.053 68.0739 584.811 67.8071 584.496 67.6115C584.185 67.416 583.817 67.3182 583.393 67.3182C582.925 67.3182 582.521 67.4342 582.18 67.6662C581.842 67.8949 581.581 68.1932 581.399 68.5611C581.217 68.929 581.126 69.3234 581.126 69.7443V70.4205C581.126 70.9972 581.225 71.486 581.424 71.8871C581.626 72.2848 581.906 72.5881 582.264 72.7969C582.622 73.0024 583.038 73.1051 583.512 73.1051C583.82 73.1051 584.099 73.062 584.347 72.9759C584.599 72.8864 584.816 72.7538 584.999 72.5781C585.181 72.3991 585.322 72.1771 585.421 71.9119L586.555 72.2301C586.435 72.6146 586.235 72.9527 585.953 73.2443C585.671 73.5327 585.323 73.758 584.909 73.9205C584.495 74.0795 584.029 74.1591 583.512 74.1591ZM595.797 66.3636V67.358H591.68V66.3636H595.797ZM592.913 74V65.3097C592.913 64.8722 593.016 64.5076 593.222 64.2159C593.427 63.9242 593.694 63.7055 594.022 63.5597C594.35 63.4138 594.696 63.3409 595.061 63.3409C595.349 63.3409 595.585 63.3641 595.767 63.4105C595.949 63.4569 596.085 63.5 596.175 63.5398L595.837 64.554C595.777 64.5341 595.694 64.5092 595.588 64.4794C595.485 64.4496 595.349 64.4347 595.18 64.4347C594.793 64.4347 594.512 64.5324 594.34 64.728C594.171 64.9235 594.087 65.2102 594.087 65.5881V74H592.913ZM600.328 74.1591C599.593 74.1591 598.958 73.9967 598.424 73.6719C597.894 73.3438 597.485 72.8864 597.196 72.2997C596.911 71.7098 596.769 71.0237 596.769 70.2415C596.769 69.4593 596.911 68.7699 597.196 68.1733C597.485 67.5734 597.886 67.1061 598.399 66.7713C598.916 66.4332 599.52 66.2642 600.209 66.2642C600.607 66.2642 601 66.3305 601.387 66.4631C601.775 66.5956 602.128 66.8111 602.446 67.1094C602.765 67.4044 603.018 67.7955 603.207 68.2827C603.396 68.7699 603.49 69.3698 603.49 70.0824V70.5795H597.604V69.5653H602.297C602.297 69.1345 602.211 68.75 602.039 68.4119C601.87 68.0739 601.628 67.8071 601.313 67.6115C601.001 67.416 600.633 67.3182 600.209 67.3182C599.742 67.3182 599.337 67.4342 598.996 67.6662C598.658 67.8949 598.398 68.1932 598.215 68.5611C598.033 68.929 597.942 69.3234 597.942 69.7443V70.4205C597.942 70.9972 598.041 71.486 598.24 71.8871C598.443 72.2848 598.723 72.5881 599.081 72.7969C599.439 73.0024 599.854 73.1051 600.328 73.1051C600.637 73.1051 600.915 73.062 601.164 72.9759C601.416 72.8864 601.633 72.7538 601.815 72.5781C601.997 72.3991 602.138 72.1771 602.238 71.9119L603.371 72.2301C603.252 72.6146 603.051 72.9527 602.769 73.2443C602.488 73.5327 602.14 73.758 601.725 73.9205C601.311 74.0795 600.845 74.1591 600.328 74.1591ZM611.287 66.3636L608.463 74H607.27L604.446 66.3636H605.719L607.827 72.4489H607.906L610.014 66.3636H611.287ZM613.212 74.0795C612.967 74.0795 612.757 73.9917 612.581 73.8161C612.405 73.6404 612.317 73.4299 612.317 73.1847C612.317 72.9394 612.405 72.7289 612.581 72.5533C612.757 72.3776 612.967 72.2898 613.212 72.2898C613.458 72.2898 613.668 72.3776 613.844 72.5533C614.019 72.7289 614.107 72.9394 614.107 73.1847C614.107 73.3471 614.066 73.4962 613.983 73.6321C613.903 73.768 613.796 73.8774 613.66 73.9602C613.527 74.0398 613.378 74.0795 613.212 74.0795Z" fill="#0F172A"/>
</g>
<path d="M68.3484 335.818V346H67.1154V337.111H67.0558L64.57 338.761V337.509L67.1154 335.818H68.3484ZM74.5977 346H71.4556V335.818H74.7369C75.7246 335.818 76.5697 336.022 77.2724 336.43C77.975 336.834 78.5136 337.416 78.8881 338.175C79.2627 338.93 79.4499 339.835 79.4499 340.889C79.4499 341.95 79.261 342.863 78.8832 343.629C78.5053 344.391 77.9551 344.978 77.2326 345.388C76.5101 345.796 75.6317 346 74.5977 346ZM72.6886 344.906H74.5181C75.36 344.906 76.0576 344.744 76.6112 344.419C77.1647 344.094 77.5773 343.632 77.8491 343.032C78.1209 342.432 78.2567 341.718 78.2567 340.889C78.2567 340.067 78.1225 339.36 77.854 338.766C77.5856 338.17 77.1845 337.712 76.6509 337.394C76.1173 337.073 75.4528 336.912 74.6573 336.912H72.6886V344.906Z" fill="#0F172A"/>
<path d="M175.746 346.139C175.162 346.139 174.637 346.023 174.17 345.791C173.702 345.559 173.328 345.241 173.046 344.837C172.764 344.432 172.61 343.972 172.584 343.455H173.777C173.823 343.915 174.032 344.296 174.403 344.598C174.778 344.896 175.225 345.045 175.746 345.045C176.163 345.045 176.535 344.948 176.859 344.752C177.188 344.557 177.444 344.288 177.63 343.947C177.819 343.602 177.913 343.213 177.913 342.778C177.913 342.334 177.816 341.938 177.62 341.59C177.428 341.239 177.163 340.962 176.825 340.76C176.487 340.558 176.1 340.455 175.666 340.452C175.355 340.448 175.035 340.496 174.707 340.596C174.379 340.692 174.108 340.816 173.896 340.969L172.743 340.83L173.359 335.818H178.649V336.912H174.393L174.036 339.915H174.095C174.304 339.749 174.566 339.612 174.881 339.502C175.196 339.393 175.524 339.338 175.865 339.338C176.488 339.338 177.043 339.487 177.531 339.786C178.021 340.08 178.406 340.485 178.684 340.999C178.966 341.512 179.107 342.099 179.107 342.759C179.107 343.408 178.961 343.988 178.669 344.499C178.381 345.006 177.983 345.407 177.476 345.702C176.969 345.993 176.392 346.139 175.746 346.139ZM184.403 346H181.26V335.818H184.542C185.529 335.818 186.375 336.022 187.077 336.43C187.78 336.834 188.318 337.416 188.693 338.175C189.068 338.93 189.255 339.835 189.255 340.889C189.255 341.95 189.066 342.863 188.688 343.629C188.31 344.391 187.76 344.978 187.037 345.388C186.315 345.796 185.437 346 184.403 346ZM182.493 344.906H184.323C185.165 344.906 185.863 344.744 186.416 344.419C186.97 344.094 187.382 343.632 187.654 343.032C187.926 342.432 188.062 341.718 188.062 340.889C188.062 340.067 187.927 339.36 187.659 338.766C187.39 338.17 186.989 337.712 186.456 337.394C185.922 337.073 185.258 336.912 184.462 336.912H182.493V344.906Z" fill="#0F172A"/>
<rect x="265.6" y="325" width="48" height="32" rx="16" fill="#7C3AED"/>
<path d="M284.752 335.818V346H283.519V337.111H283.459L280.974 338.761V337.509L283.519 335.818H284.752ZM287.859 335.818H289.331L292.791 344.27H292.91L296.371 335.818H297.842V346H296.689V338.264H296.589L293.408 346H292.294L289.112 338.264H289.013V346H287.859V335.818Z" fill="white"/>
<path d="M395.049 335.818V346H393.816V337.111H393.757L391.271 338.761V337.509L393.816 335.818H395.049ZM398.574 346H397.281L401.02 335.818H402.293L406.031 346H404.739L401.696 337.429H401.617L398.574 346ZM399.051 342.023H404.262V343.116H399.051V342.023Z" fill="#0F172A"/>
<path d="M502.446 346.139C501.863 346.139 501.338 346.023 500.87 345.791C500.403 345.559 500.029 345.241 499.747 344.837C499.465 344.432 499.311 343.972 499.285 343.455H500.478C500.524 343.915 500.733 344.296 501.104 344.598C501.479 344.896 501.926 345.045 502.446 345.045C502.864 345.045 503.235 344.948 503.56 344.752C503.888 344.557 504.145 344.288 504.331 343.947C504.52 343.602 504.614 343.213 504.614 342.778C504.614 342.334 504.516 341.938 504.321 341.59C504.129 341.239 503.863 340.962 503.525 340.76C503.187 340.558 502.801 340.455 502.367 340.452C502.055 340.448 501.736 340.496 501.407 340.596C501.079 340.692 500.809 340.816 500.597 340.969L499.444 340.83L500.06 335.818H505.35V336.912H501.094L500.736 339.915H500.796C501.005 339.749 501.267 339.612 501.581 339.502C501.896 339.393 502.224 339.338 502.566 339.338C503.189 339.338 503.744 339.487 504.231 339.786C504.722 340.08 505.106 340.485 505.385 340.999C505.666 341.512 505.807 342.099 505.807 342.759C505.807 343.408 505.661 343.988 505.37 344.499C505.081 345.006 504.684 345.407 504.177 345.702C503.67 345.993 503.093 346.139 502.446 346.139ZM508.379 346H507.086L510.825 335.818H512.098L515.836 346H514.544L511.501 337.429H511.421L508.379 346ZM508.856 342.023H514.066V343.116H508.856V342.023Z" fill="#0F172A"/>
<path d="M603.281 335.818H604.752L608.213 344.27H608.332L611.792 335.818H613.264V346H612.11V338.264H612.011L608.829 346H607.715L604.534 338.264H604.434V346H603.281V335.818ZM617.824 346.179C617.34 346.179 616.901 346.088 616.506 345.906C616.112 345.72 615.799 345.453 615.567 345.105C615.335 344.754 615.219 344.33 615.219 343.832C615.219 343.395 615.305 343.04 615.477 342.768C615.65 342.493 615.88 342.278 616.168 342.122C616.457 341.966 616.775 341.85 617.123 341.774C617.474 341.695 617.827 341.632 618.182 341.585C618.646 341.526 619.022 341.481 619.31 341.451C619.602 341.418 619.814 341.363 619.947 341.287C620.083 341.211 620.151 341.078 620.151 340.889V340.849C620.151 340.359 620.016 339.978 619.748 339.706C619.483 339.434 619.08 339.298 618.54 339.298C617.98 339.298 617.541 339.421 617.222 339.666C616.904 339.911 616.68 340.173 616.551 340.452L615.438 340.054C615.636 339.59 615.902 339.229 616.233 338.97C616.568 338.708 616.932 338.526 617.327 338.423C617.725 338.317 618.116 338.264 618.5 338.264C618.745 338.264 619.027 338.294 619.345 338.354C619.667 338.41 619.977 338.528 620.275 338.707C620.577 338.886 620.827 339.156 621.026 339.517C621.225 339.878 621.324 340.362 621.324 340.969V346H620.151V344.966H620.091C620.011 345.132 619.879 345.309 619.693 345.498C619.508 345.687 619.261 345.848 618.953 345.98C618.644 346.113 618.268 346.179 617.824 346.179ZM618.003 345.125C618.467 345.125 618.858 345.034 619.176 344.852C619.498 344.669 619.74 344.434 619.902 344.146C620.068 343.857 620.151 343.554 620.151 343.236V342.162C620.101 342.222 619.992 342.276 619.823 342.326C619.657 342.372 619.465 342.414 619.246 342.45C619.03 342.483 618.82 342.513 618.614 342.54C618.412 342.563 618.248 342.583 618.122 342.599C617.817 342.639 617.532 342.704 617.267 342.793C617.005 342.879 616.793 343.01 616.631 343.186C616.472 343.358 616.392 343.594 616.392 343.892C616.392 344.3 616.543 344.608 616.845 344.817C617.149 345.022 617.536 345.125 618.003 345.125ZM618.043 337.33L619.256 335.023H620.628L619.077 337.33H618.043ZM624.34 338.364L626.17 341.486L628 338.364H629.352L626.886 342.182L629.352 346H628L626.17 343.037L624.34 346H622.988L625.414 342.182L622.988 338.364H624.34Z" fill="#0F172A"/>
<defs>
<filter id="filter0_d_6_28" x="461.447" y="37" width="178" height="72" filterUnits="userSpaceOnUse" color-interpolation-filters="sRGB">
<feFlood flood-opacity="0" result="BackgroundImageFix"/>
<feColorMatrix in="SourceAlpha" type="matrix" values="0 0 0 0 0 0 0 0 0 0 0 0 0 0 0 0 0 0 127 0" result="hardAlpha"/>
<feOffset dy="4"/>
<feGaussianBlur stdDeviation="8"/>
<feComposite in2="hardAlpha" operator="out"/>
<feColorMatrix type="matrix" values="0 0 0 0 0.0588235 0 0 0 0 0.0901961 0 0 0 0 0.164706 0 0 0 0.15 0"/>
<feBlend mode="normal" in2="BackgroundImageFix" result="effect1_dropShadow_6_28"/>
<feBlend mode="normal" in="SourceGraphic" in2="effect1_dropShadow_6_28" result="shape"/>
</filter>
<linearGradient id="paint0_linear_6_28" x1="343.668" y1="64.4506" x2="343.668" y2="301" gradientUnits="userSpaceOnUse">
<stop stop-color="#7C3AED" stop-opacity="0.5"/>
<stop offset="1" stop-color="#7C3AED" stop-opacity="0"/>
</linearGradient>
</defs>
</svg>
